<svg xmlns="http://www.w3.org/2000/svg" width="460.713" height="53.043" viewBox="0 0 460.713 53.043">
  <path id="패스_27" data-name="패스 27" d="M38.773-21.5q-1.6.608-3.263,1.215t-3.283,1.149q-1.616.542-3.142.938a21.869,21.869,0,0,1-2.818.555.726.726,0,0,1-.182.026H25.9a3.026,3.026,0,0,1-1.384-.343,3.937,3.937,0,0,1-1.2-.951,4.053,4.053,0,0,1-.97-2.721q0-.291.02-.581t.061-.581q.061-.476.091-.938a5.3,5.3,0,0,0-.02-.925,3.545,3.545,0,0,0-.212-.885,2.586,2.586,0,0,0-.525-.819,1.922,1.922,0,0,0-.727-.476A2.577,2.577,0,0,0,20.125-27a3.571,3.571,0,0,0-.99.145,3.368,3.368,0,0,0-.97.462,4.426,4.426,0,0,0-.636.528,6.2,6.2,0,0,0-.7.819,7.127,7.127,0,0,0-.626,1.057,4.806,4.806,0,0,0-.4,1.242q-.242,1.268-.354,2.312T15.215-18.2l-.869-.132q.162-1.8.414-3.607t.535-3.95q.081-.713.162-1.4t.162-1.281q.081-.594.141-1.03t.1-.647a31.092,31.092,0,0,1-2.778,2.3,22.85,22.85,0,0,1-3.223,1.982q-1.091.555-2.323,1.123T5-23.7q-1.3.581-2.637,1.136T-.262-21.5L-.5-22.612q1.293-.5,2.616-1.044t2.616-1.123q1.293-.581,2.515-1.149t2.293-1.123a23.551,23.551,0,0,0,3.627-2.285,29.552,29.552,0,0,0,3-2.629q.3-1.691.647-3.461t.727-3.488q.384-1.717.818-3.3t.909-2.906a18.063,18.063,0,0,1,.99-2.3,4.814,4.814,0,0,1,1.081-1.453,1.01,1.01,0,0,1,.737-.33.927.927,0,0,1,.475.172,1.92,1.92,0,0,1,.636.991,5.454,5.454,0,0,1,.232,1.7,19.185,19.185,0,0,1-.172,2.6,18.448,18.448,0,0,1-.535,2.536,23.084,23.084,0,0,1-.929,2.629,30.8,30.8,0,0,1-1.374,2.827,17.856,17.856,0,0,1-1.333,2.008A23.652,23.652,0,0,1,16.952-31.3q-.081.37-.131.7l-.091.594a5.365,5.365,0,0,0-.091.594q-.051.436-.131,1.017t-.172,1.255q-.091.674-.172,1.334a6.754,6.754,0,0,1,.879-1,7.616,7.616,0,0,1,.737-.608,4.639,4.639,0,0,1,1.081-.515,4.1,4.1,0,0,1,1.212-.211,3.229,3.229,0,0,1,1.192.2,2.793,2.793,0,0,1,1.041.687,3.911,3.911,0,0,1,.748,1.149,4.573,4.573,0,0,1,.313,1.2,7.083,7.083,0,0,1,.04,1.189q-.03.581-.091,1.083-.04.291-.061.542t-.02.462a2.557,2.557,0,0,0,.222,1.136,4.544,4.544,0,0,0,.444.74,2.7,2.7,0,0,0,1.061.779,2.551,2.551,0,0,0,1.2.2,21.009,21.009,0,0,0,2.768-.555q1.5-.4,3.1-.925T35.288-21.4Q36.934-22,38.51-22.612ZM18.751-40.1q-.444,1.8-.818,3.607t-.657,3.342a21.876,21.876,0,0,0,1.455-1.8,14.354,14.354,0,0,0,.95-1.48q.768-1.427,1.313-2.682a20.223,20.223,0,0,0,.889-2.444,15.783,15.783,0,0,0,.5-2.365,18.9,18.9,0,0,0,.152-2.418q0-.185-.02-.515a3.228,3.228,0,0,0-.1-.634,1.214,1.214,0,0,0-.212-.462q-.131-.159-.374.026a3.569,3.569,0,0,0-.566.7,9.393,9.393,0,0,0-.717,1.4q-.394.912-.838,2.312T18.751-40.1ZM78.212-21.5q-1.374.528-2.869.938t-3.071.687q-1.576.277-3.172.423t-3.172.145a10.747,10.747,0,0,1-4.223-.713q-.061.106-.131.211a1.577,1.577,0,0,1-.172.211,5.607,5.607,0,0,1-1.788,1.466,4.49,4.49,0,0,1-2.091.542,2.915,2.915,0,0,1-2.031-.74,3.619,3.619,0,0,1-1.081-2.034,6.5,6.5,0,0,1-.051-2.365,7.44,7.44,0,0,1,.778-2.285,3.686,3.686,0,0,1,.374-.555,5.91,5.91,0,0,1,.505-.555,6.575,6.575,0,0,1,.546-.476,4.977,4.977,0,0,1,.5-.343,41.965,41.965,0,0,0-4.263.806q-2.121.515-4.213,1.189T44.44-23.51q-2.051.766-4.031,1.532l-1.273.476-.263-1.083.657-.251q.313-.119.636-.251,2.323-.9,4.6-1.744t4.586-1.532A48.376,48.376,0,0,1,54.1-27.513a37.139,37.139,0,0,1,5.081-.594h.364a2.9,2.9,0,0,1,2.2.872,3.417,3.417,0,0,1,.8,1.321,6.139,6.139,0,0,1,.313,1.744,6.582,6.582,0,0,1-.121,1.625A7.562,7.562,0,0,1,62.25-21a11.233,11.233,0,0,0,3.677.528q1.536,0,3.111-.145t3.111-.41q1.536-.264,3.01-.661a25.771,25.771,0,0,0,2.808-.925ZM59.725-24.356A3.183,3.183,0,0,0,61.4-21.423a5.547,5.547,0,0,0,.586-2.695,4.413,4.413,0,0,0-.131-.951,3.574,3.574,0,0,0-.293-.766,1.149,1.149,0,0,0-.455-.3.7.7,0,0,0-.677.066,1.641,1.641,0,0,0-.475.555A2.337,2.337,0,0,0,59.725-24.356Zm-2.2,5.575a3.792,3.792,0,0,0,1.758-.449A4.771,4.771,0,0,0,60.8-20.472q.02,0,.02-.026a4.306,4.306,0,0,1-1.98-3.858,3.57,3.57,0,0,1,.111-.885,2.982,2.982,0,0,1,.323-.793,1.8,1.8,0,0,1,.515-.568,1.14,1.14,0,0,1,.667-.211,3.684,3.684,0,0,0-.535-.119,3.139,3.139,0,0,0-.374-.04,3.335,3.335,0,0,0-1.919.608,6.279,6.279,0,0,0-.788.7,6.04,6.04,0,0,0-.909,1.215,6.231,6.231,0,0,0-.657,1.691,4.776,4.776,0,0,0-.01,2.074,2.4,2.4,0,0,0,.414,1.017,2.193,2.193,0,0,0,.636.581,1.98,1.98,0,0,0,.667.251A3.477,3.477,0,0,0,57.523-18.781Zm68.169-2.695q-1.6.608-3.263,1.229T119.146-19.1q-1.616.528-3.142.925a25.831,25.831,0,0,1-2.818.581h-.343a3.082,3.082,0,0,1-1.333-.317,3.577,3.577,0,0,1-1.172-.9,4.2,4.2,0,0,1-1.071-2.774q0-.264-.01-.832t.01-1.414a4.435,4.435,0,0,0-.182-1.44,2.454,2.454,0,0,0-.606-1.044,2.451,2.451,0,0,0-1.879-.634h-.02a3.835,3.835,0,0,0-1.889.423,3.8,3.8,0,0,0-1.263,1.136,6.7,6.7,0,0,0-.838,1.665q-.333.951-.6,2.034-.121.555-.273,1.136t-.3,1.1q-.152.515-.283.925t-.212.621l-.788-.476q.141-.4.364-1.136t.434-1.559q.212-.819.364-1.572a6.378,6.378,0,0,0,.152-1.176,4.436,4.436,0,0,0-.182-1.44,2.454,2.454,0,0,0-.606-1.044,2.01,2.01,0,0,0-.808-.515,2.5,2.5,0,0,0-1.071-.119,37.045,37.045,0,0,0-5.041.594q-2.435.462-4.768,1.136T84.364-23.7q-2.273.845-4.6,1.744-.3.132-.606.238a6.237,6.237,0,0,0-.586.238l-.263-1.11q.3-.132.606-.238l.606-.211q2.344-.9,4.637-1.757t4.647-1.546q2.354-.687,4.819-1.163a36.633,36.633,0,0,1,5.132-.608,3.191,3.191,0,0,1,1.364.185,2.949,2.949,0,0,1,1.081.687,3.873,3.873,0,0,1,.99,2.034,6.813,6.813,0,0,1,.546-.925,4.424,4.424,0,0,1,3.839-2.008h.02a4.683,4.683,0,0,1,1.222.185,2.667,2.667,0,0,1,1.2.713,3.747,3.747,0,0,1,.859,1.48,5.9,5.9,0,0,1,.273,1.955q-.04,1.638,0,2.167a2.781,2.781,0,0,0,.263,1.189,4.139,4.139,0,0,0,.485.766,2.882,2.882,0,0,0,1.03.753,2.133,2.133,0,0,0,1.152.172,21.008,21.008,0,0,0,2.768-.555q1.5-.4,3.1-.925t3.263-1.136q1.657-.608,3.233-1.215Zm39.4-.026q-1.758.687-3.576,1.334t-3.9,1.334a25.78,25.78,0,0,0-5.011,2.3,24.729,24.729,0,0,0-4.3,3.25q-.364,2.854-.788,5.588t-.97,4.967a20.775,20.775,0,0,1-1.263,3.778,3.992,3.992,0,0,1-1.687,2.021,2.255,2.255,0,0,1-.485.185,1.761,1.761,0,0,1-.4.053,1.2,1.2,0,0,1-.778-.238,2.281,2.281,0,0,1-.455-.476A3.8,3.8,0,0,1,140.926.9a11.093,11.093,0,0,1-.01-2.272,15.591,15.591,0,0,1,.434-2.47,16.128,16.128,0,0,1,.788-2.338,24.031,24.031,0,0,1,2.293-4.135,24.145,24.145,0,0,1,3.061-3.607q.04-.317.081-.647t.081-.647q.162-1.11.293-2.193t.273-2.114a5.588,5.588,0,0,1-1.748,1.414,4.39,4.39,0,0,1-2.031.515,2.952,2.952,0,0,1-2.041-.74,3.609,3.609,0,0,1-1.091-2.061,6.9,6.9,0,0,1-.04-2.352,6.966,6.966,0,0,1,.788-2.272,4.739,4.739,0,0,1,.8-1.057,6.047,6.047,0,0,1,1.1-.9,41.533,41.533,0,0,0-4.586.9q-2.283.581-4.526,1.321T130.4-23.167q-2.2.845-4.344,1.665l-.263-1.11q2.546-.925,5-1.836t4.95-1.665q2.5-.753,5.112-1.281a44.052,44.052,0,0,1,5.485-.74h.1a2.892,2.892,0,0,1,2.2.9,4.217,4.217,0,0,1,1.01,2.034l.485.211q-.343,1.215-.576,2.484t-.4,2.563q-.172,1.295-.333,2.6t-.384,2.576a28.582,28.582,0,0,1,4.172-3,24.789,24.789,0,0,1,4.778-2.18q2.081-.687,3.889-1.334t3.566-1.334ZM143.29,1.986A3.324,3.324,0,0,0,144.633.229a22.125,22.125,0,0,0,1.091-3.4q.5-2.008.889-4.412t.717-4.835A24,24,0,0,0,142.906-5.6a14.058,14.058,0,0,0-.717,2.127,14.447,14.447,0,0,0-.394,2.259,8.961,8.961,0,0,0-.01,1.85,2.811,2.811,0,0,0,.354,1.215.969.969,0,0,0,.313.264Q142.7,2.277,143.29,1.986Zm4.4-22.458a5.035,5.035,0,0,0,.879-1.625,6.431,6.431,0,0,0,.313-2.048,4.789,4.789,0,0,0-.232-1.255,2.417,2.417,0,0,0-.556-.938,2.143,2.143,0,0,0-1.657-.634H146.2a3.807,3.807,0,0,0-1.677.581,6.28,6.28,0,0,0-.788.7,5.907,5.907,0,0,0-.909,1.229,6.466,6.466,0,0,0-.657,1.691,4.831,4.831,0,0,0-.01,2.087,2.4,2.4,0,0,0,.414,1.017,2.193,2.193,0,0,0,.636.581,1.976,1.976,0,0,0,.677.251,3.666,3.666,0,0,0,.556.053,3.706,3.706,0,0,0,1.758-.462A4.866,4.866,0,0,0,147.694-20.472ZM193.881,3.334a1.164,1.164,0,0,1-.758-.238,2.281,2.281,0,0,1-.455-.476A3.8,3.8,0,0,1,192.123.93a11.094,11.094,0,0,1-.01-2.272,15.587,15.587,0,0,1,.434-2.47,16.124,16.124,0,0,1,.788-2.338,24.8,24.8,0,0,1,2.293-4.148,28.846,28.846,0,0,1,3.061-3.778q.04-.555.091-1.083t.091-1.03q.081-.766.131-1.466t.091-1.361a4.613,4.613,0,0,1-2.5,1.466,3.634,3.634,0,0,1-2.677-.594,3.089,3.089,0,0,1-1.273-1.546,4.5,4.5,0,0,1-.222-2.233l.061-.476q.081-.581.152-1.149a10.378,10.378,0,0,0,.081-1.07,6.43,6.43,0,0,0-.04-.912,1.7,1.7,0,0,0-.232-.7,1.868,1.868,0,0,0-1.677-.713h-.141a7.989,7.989,0,0,0-2,.291q-1.111.291-2.374.753t-2.606,1.057q-1.344.594-2.7,1.2-1.273.555-2.546,1.123t-2.485,1.044l-.242-1.11q1.212-.476,2.465-1.03t2.526-1.11q1.475-.661,2.889-1.281t2.707-1.1a20.456,20.456,0,0,1,2.435-.74,8.3,8.3,0,0,1,2.091-.238,2.589,2.589,0,0,1,2.344,1.136,3.245,3.245,0,0,1,.374.978,5.516,5.516,0,0,1,.111,1.136,10.774,10.774,0,0,1-.081,1.281q-.081.674-.182,1.361-.02.132-.03.225t-.03.225a2.352,2.352,0,0,0,1.01,2.536,2.909,2.909,0,0,0,2.576.4,4.642,4.642,0,0,0,2.334-1.929q.04-.608.051-1.149t.051-1.044q.061-1.242.111-2.14a11.049,11.049,0,0,1,.172-1.506q.02-.132.091-.4a2.211,2.211,0,0,1,.212-.515,1.86,1.86,0,0,1,.374-.462.96.96,0,0,1,.6-.238.811.811,0,0,1,.849.528,2.74,2.74,0,0,1,.2,1.321,11.224,11.224,0,0,1-.222,1.7,15.559,15.559,0,0,1-.444,1.691,13.144,13.144,0,0,1-.465,1.255,11.87,11.87,0,0,1-.727,1.427q-.061.925-.131,1.968t-.192,2.233a5.4,5.4,0,0,0-.061.555q-.02.317-.061.581a29.352,29.352,0,0,1,3.182-2.669,15.847,15.847,0,0,1,3.263-1.85q1.071-.423,2.334-.885t2.556-.912q1.03-.37,1.98-.7t1.8-.647l.242,1.11q-.849.317-1.8.647t-2,.7q-1.273.449-2.536.9t-2.313.9a16.022,16.022,0,0,0-3.475,1.942,25.542,25.542,0,0,0-3.334,2.893,2.107,2.107,0,0,1-.01.225q-.01.092-.03.2-.121,1.612-.273,3.3t-.374,3.342q-.222,1.651-.546,3.184a18.117,18.117,0,0,1-.808,2.787,9.933,9.933,0,0,1-1.142,2.18A4.253,4.253,0,0,1,194.79,3.1a2.255,2.255,0,0,1-.485.185A1.835,1.835,0,0,1,193.881,3.334Zm4.728-15.985a27.889,27.889,0,0,0-2.566,3.422A24.473,24.473,0,0,0,194.1-5.57a14.064,14.064,0,0,0-.717,2.127,14.449,14.449,0,0,0-.394,2.259,8.959,8.959,0,0,0-.01,1.85,2.811,2.811,0,0,0,.354,1.215.969.969,0,0,0,.313.264q.253.159.838-.132A4.22,4.22,0,0,0,196.3-.061a17,17,0,0,0,1.172-3.567,39.981,39.981,0,0,0,.707-4.412Q198.427-10.405,198.609-12.651Zm1.859-13.634a6.85,6.85,0,0,0-.111.845q-.051.581-.1,1.229t-.091,1.281q-.04.634-.061,1.03a6.884,6.884,0,0,0,.212-.687q.111-.423.222-.885t.2-.9q.091-.436.152-.753.182-.978.263-1.546t-.121-.647q-.162-.079-.313.211A3.072,3.072,0,0,0,200.468-26.285Zm53.945,4.729a55.33,55.33,0,0,1-6.213,2.021,54.656,54.656,0,0,1-6.172,1.255q-2.081.291-4.011.449t-3.728.159h-.606a2.986,2.986,0,0,1-2-.753,3.581,3.581,0,0,1-1.071-2.021,6.735,6.735,0,0,1-.03-2.352,7.444,7.444,0,0,1,.778-2.272,7,7,0,0,1,.606-.951,6.931,6.931,0,0,1,.647-.74q-2.142.291-4.162.766t-3.99,1.1q-1.97.621-3.91,1.361t-3.92,1.506l-1.273.476-.263-1.11q.343-.132.657-.238t.636-.238q2.323-.9,4.607-1.744t4.627-1.532q2.344-.687,4.788-1.149a37.415,37.415,0,0,1,5.091-.594,3.507,3.507,0,0,1,1.323.145,2.665,2.665,0,0,1,1.142.727,4.13,4.13,0,0,1,.8,1.255,3.9,3.9,0,0,1,.333,1.678,2.662,2.662,0,0,1-.808,1.9,2.763,2.763,0,0,1-1.354.634q-.768.132-1.515.185-.283.026-.535.04a2.649,2.649,0,0,0-.475.066,1.635,1.635,0,0,1-.2.04,1.636,1.636,0,0,0-.2.04q-.323.053-.677.119a5.79,5.79,0,0,0-.687.172,2.829,2.829,0,0,0-.616.277,1.976,1.976,0,0,0-.485.41,2.2,2.2,0,0,0,.4.845,2.212,2.212,0,0,0,.576.5,1.83,1.83,0,0,0,.626.238,3.382,3.382,0,0,0,.556.053q1.859.026,3.95-.119t4.293-.462a52.941,52.941,0,0,0,6.081-1.255,59.359,59.359,0,0,0,6.142-1.995Zm-20.588-4.862a4.3,4.3,0,0,0-.687.568,5.769,5.769,0,0,0-.818,1.017,6.465,6.465,0,0,0-.667,1.387,5.128,5.128,0,0,0-.273,1.7,2.972,2.972,0,0,1,1.2-.581q.677-.159,1.3-.291a1.557,1.557,0,0,0,.2-.013,1.638,1.638,0,0,0,.2-.04,4.422,4.422,0,0,1,.515-.079l.576-.053q.646-.053,1.313-.159a2.127,2.127,0,0,0,1.091-.476,1.24,1.24,0,0,0,.444-.978,2.412,2.412,0,0,0-.212-1.03,3.245,3.245,0,0,0-.6-.951,2.293,2.293,0,0,0-1.677-.634,2.983,2.983,0,0,0-.97.159A4.988,4.988,0,0,0,233.825-26.417ZM293.852-21.5q-1.374.528-2.869.938t-3.071.687q-1.576.277-3.172.423t-3.172.145a10.747,10.747,0,0,1-4.223-.713q-.061.106-.131.211a1.575,1.575,0,0,1-.172.211,5.608,5.608,0,0,1-1.788,1.466,4.491,4.491,0,0,1-2.091.542,2.915,2.915,0,0,1-2.031-.74,3.62,3.62,0,0,1-1.081-2.034A6.5,6.5,0,0,1,270-22.731a7.443,7.443,0,0,1,.778-2.285,3.686,3.686,0,0,1,.374-.555,5.906,5.906,0,0,1,.505-.555,6.576,6.576,0,0,1,.546-.476,4.974,4.974,0,0,1,.495-.343,41.965,41.965,0,0,0-4.263.806q-2.121.515-4.213,1.189t-4.142,1.44q-2.051.766-4.031,1.532l-1.273.476-.263-1.083.657-.251q.313-.119.636-.251,2.324-.9,4.6-1.744t4.586-1.532a48.373,48.373,0,0,1,4.748-1.149,37.139,37.139,0,0,1,5.081-.594h.364a2.9,2.9,0,0,1,2.2.872,3.416,3.416,0,0,1,.8,1.321,6.138,6.138,0,0,1,.313,1.744,6.586,6.586,0,0,1-.121,1.625A7.563,7.563,0,0,1,277.89-21a11.232,11.232,0,0,0,3.677.528q1.536,0,3.111-.145t3.111-.41q1.536-.264,3.01-.661a25.776,25.776,0,0,0,2.808-.925Zm-18.487-2.854a3.183,3.183,0,0,0,1.677,2.933,5.548,5.548,0,0,0,.586-2.695,4.416,4.416,0,0,0-.131-.951,3.572,3.572,0,0,0-.293-.766,1.149,1.149,0,0,0-.455-.3.7.7,0,0,0-.677.066,1.641,1.641,0,0,0-.475.555A2.337,2.337,0,0,0,275.365-24.356Zm-2.2,5.575a3.791,3.791,0,0,0,1.758-.449,4.771,4.771,0,0,0,1.515-1.242c.013,0,.02-.009.02-.026a4.306,4.306,0,0,1-1.98-3.858,3.57,3.57,0,0,1,.111-.885,2.979,2.979,0,0,1,.323-.793,1.8,1.8,0,0,1,.515-.568,1.14,1.14,0,0,1,.667-.211,3.683,3.683,0,0,0-.535-.119,3.14,3.14,0,0,0-.374-.04,3.335,3.335,0,0,0-1.919.608,6.278,6.278,0,0,0-.788.7,6.038,6.038,0,0,0-.909,1.215,6.231,6.231,0,0,0-.657,1.691,4.777,4.777,0,0,0-.01,2.074,2.4,2.4,0,0,0,.414,1.017,2.193,2.193,0,0,0,.636.581,1.981,1.981,0,0,0,.667.251A3.477,3.477,0,0,0,273.163-18.781Zm68.169-2.695q-1.6.608-3.263,1.229T334.786-19.1q-1.616.528-3.142.925a25.832,25.832,0,0,1-2.818.581h-.343a3.081,3.081,0,0,1-1.333-.317,3.577,3.577,0,0,1-1.172-.9,4.205,4.205,0,0,1-1.071-2.774q0-.264-.01-.832t.01-1.414a4.436,4.436,0,0,0-.182-1.44,2.453,2.453,0,0,0-.606-1.044,2.451,2.451,0,0,0-1.879-.634h-.02a3.835,3.835,0,0,0-1.889.423,3.8,3.8,0,0,0-1.263,1.136,6.7,6.7,0,0,0-.838,1.665q-.333.951-.6,2.034-.121.555-.273,1.136t-.3,1.1q-.152.515-.283.925t-.212.621l-.788-.476q.141-.4.364-1.136t.434-1.559q.212-.819.364-1.572a6.375,6.375,0,0,0,.152-1.176,4.434,4.434,0,0,0-.182-1.44,2.453,2.453,0,0,0-.606-1.044,2.01,2.01,0,0,0-.808-.515,2.5,2.5,0,0,0-1.071-.119,37.044,37.044,0,0,0-5.041.594q-2.435.462-4.768,1.136T300-23.7q-2.273.845-4.6,1.744-.3.132-.606.238a6.244,6.244,0,0,0-.586.238l-.263-1.11q.3-.132.606-.238l.606-.211q2.344-.9,4.637-1.757t4.647-1.546q2.354-.687,4.819-1.163a36.633,36.633,0,0,1,5.132-.608,3.191,3.191,0,0,1,1.364.185,2.95,2.95,0,0,1,1.081.687,3.874,3.874,0,0,1,.99,2.034,6.806,6.806,0,0,1,.546-.925,4.424,4.424,0,0,1,3.839-2.008h.02a4.683,4.683,0,0,1,1.222.185,2.667,2.667,0,0,1,1.2.713,3.747,3.747,0,0,1,.859,1.48,5.9,5.9,0,0,1,.273,1.955q-.04,1.638,0,2.167a2.781,2.781,0,0,0,.263,1.189,4.14,4.14,0,0,0,.485.766,2.882,2.882,0,0,0,1.03.753,2.133,2.133,0,0,0,1.152.172,21.009,21.009,0,0,0,2.768-.555q1.5-.4,3.1-.925t3.263-1.136q1.657-.608,3.233-1.215Zm39.439-.079a55.331,55.331,0,0,1-6.213,2.021,54.657,54.657,0,0,1-6.172,1.255q-2.081.291-4.011.449t-3.728.159h-.606a2.986,2.986,0,0,1-2-.753,3.582,3.582,0,0,1-1.071-2.021,6.735,6.735,0,0,1-.03-2.352,7.443,7.443,0,0,1,.778-2.272,7,7,0,0,1,.606-.951,6.934,6.934,0,0,1,.647-.74q-2.142.291-4.162.766t-3.99,1.1q-1.97.621-3.91,1.361t-3.92,1.506l-1.273.476-.263-1.11q.344-.132.657-.238t.636-.238q2.323-.9,4.607-1.744t4.627-1.532q2.344-.687,4.788-1.149a37.415,37.415,0,0,1,5.091-.594,3.507,3.507,0,0,1,1.323.145,2.664,2.664,0,0,1,1.142.727,4.13,4.13,0,0,1,.8,1.255,3.9,3.9,0,0,1,.333,1.678,2.662,2.662,0,0,1-.808,1.9,2.763,2.763,0,0,1-1.354.634q-.768.132-1.515.185-.283.026-.535.04a2.649,2.649,0,0,0-.475.066,1.637,1.637,0,0,1-.2.04,1.637,1.637,0,0,0-.2.04q-.323.053-.677.119a5.789,5.789,0,0,0-.687.172,2.831,2.831,0,0,0-.616.277,1.974,1.974,0,0,0-.485.41,2.2,2.2,0,0,0,.4.845,2.212,2.212,0,0,0,.576.5,1.831,1.831,0,0,0,.626.238,3.383,3.383,0,0,0,.556.053q1.859.026,3.95-.119t4.293-.462a52.943,52.943,0,0,0,6.081-1.255,59.358,59.358,0,0,0,6.142-1.995Zm-20.588-4.862a4.291,4.291,0,0,0-.687.568,5.764,5.764,0,0,0-.818,1.017,6.463,6.463,0,0,0-.667,1.387,5.127,5.127,0,0,0-.273,1.7,2.971,2.971,0,0,1,1.2-.581q.677-.159,1.3-.291a1.556,1.556,0,0,0,.2-.013,1.638,1.638,0,0,0,.2-.04,4.422,4.422,0,0,1,.515-.079l.576-.053q.646-.053,1.313-.159a2.126,2.126,0,0,0,1.091-.476,1.24,1.24,0,0,0,.445-.978,2.412,2.412,0,0,0-.212-1.03,3.246,3.246,0,0,0-.6-.951,2.293,2.293,0,0,0-1.677-.634,2.983,2.983,0,0,0-.97.159A4.987,4.987,0,0,0,360.182-26.417ZM420.209-21.5q-1.374.528-2.869.938t-3.071.687q-1.576.277-3.172.423t-3.172.145a10.747,10.747,0,0,1-4.223-.713q-.061.106-.131.211a1.578,1.578,0,0,1-.172.211,5.608,5.608,0,0,1-1.788,1.466,4.491,4.491,0,0,1-2.091.542,2.915,2.915,0,0,1-2.03-.74,3.619,3.619,0,0,1-1.081-2.034,6.5,6.5,0,0,1-.051-2.365,7.439,7.439,0,0,1,.778-2.285,3.685,3.685,0,0,1,.374-.555,5.906,5.906,0,0,1,.505-.555,6.58,6.58,0,0,1,.545-.476,4.974,4.974,0,0,1,.5-.343,41.964,41.964,0,0,0-4.263.806q-2.122.515-4.213,1.189t-4.142,1.44q-2.051.766-4.031,1.532l-1.273.476-.263-1.083.657-.251q.313-.119.636-.251,2.324-.9,4.6-1.744t4.586-1.532a48.374,48.374,0,0,1,4.748-1.149,37.139,37.139,0,0,1,5.081-.594h.364a2.9,2.9,0,0,1,2.2.872,3.417,3.417,0,0,1,.8,1.321,6.141,6.141,0,0,1,.313,1.744,6.585,6.585,0,0,1-.121,1.625A7.564,7.564,0,0,1,404.248-21a11.233,11.233,0,0,0,3.677.528q1.535,0,3.111-.145t3.111-.41q1.536-.264,3.01-.661a25.772,25.772,0,0,0,2.808-.925Zm-18.487-2.854a3.183,3.183,0,0,0,1.677,2.933,5.547,5.547,0,0,0,.586-2.695,4.412,4.412,0,0,0-.131-.951,3.574,3.574,0,0,0-.293-.766,1.149,1.149,0,0,0-.455-.3.7.7,0,0,0-.677.066,1.641,1.641,0,0,0-.475.555A2.337,2.337,0,0,0,401.722-24.356Zm-2.2,5.575a3.792,3.792,0,0,0,1.758-.449,4.771,4.771,0,0,0,1.515-1.242q.02,0,.02-.026a4.306,4.306,0,0,1-1.98-3.858,3.572,3.572,0,0,1,.111-.885,2.981,2.981,0,0,1,.323-.793,1.8,1.8,0,0,1,.515-.568,1.14,1.14,0,0,1,.667-.211,3.685,3.685,0,0,0-.535-.119,3.138,3.138,0,0,0-.374-.04,3.336,3.336,0,0,0-1.919.608,6.28,6.28,0,0,0-.788.7,6.041,6.041,0,0,0-.909,1.215,6.232,6.232,0,0,0-.657,1.691,4.777,4.777,0,0,0-.01,2.074,2.4,2.4,0,0,0,.414,1.017,2.193,2.193,0,0,0,.636.581,1.98,1.98,0,0,0,.667.251A3.477,3.477,0,0,0,399.52-18.781Zm60.108-2.695q-1.738.608-3.5,1.281t-3.465,1.242q-1.707.568-3.324.938a13.78,13.78,0,0,1-3.071.37,2.289,2.289,0,0,1-.909-.251,4.754,4.754,0,0,1-.839-.542,6.274,6.274,0,0,1-.748-.713,8.881,8.881,0,0,1-.616-.766q-.222-.37-.475-.74t-.535-.766a.17.17,0,0,1-.1.066.3.3,0,0,0-.1.04,5.471,5.471,0,0,1-1.515.489,8.307,8.307,0,0,1-1.273.119,2.027,2.027,0,0,1-.424-.053,2.147,2.147,0,0,1-.505-.185,2.472,2.472,0,0,1-.5-.33,1.49,1.49,0,0,1-.374-.489,1.788,1.788,0,0,1-.1-1.374,1.91,1.91,0,0,1,2.041-1.321h.061a2.88,2.88,0,0,1,1.677.5,6.719,6.719,0,0,1,1.293,1.163,2.956,2.956,0,0,0,.616-.594,1.781,1.781,0,0,0,.333-.779,2.151,2.151,0,0,0-.121-1.242,3.053,3.053,0,0,0-.566-.925,1.751,1.751,0,0,0-.707-.476,2.577,2.577,0,0,0-.909-.159,3.571,3.571,0,0,0-.99.145,3.369,3.369,0,0,0-.97.462,4.431,4.431,0,0,0-.636.528,6.2,6.2,0,0,0-.7.819,6.563,6.563,0,0,0-.616,1.057,5.746,5.746,0,0,0-.414,1.242,21.042,21.042,0,0,0-.364,2.233q-.121,1.123-.242,2.312l-.869-.132q.162-1.9.445-3.752t.505-3.8q.081-.713.172-1.4t.172-1.281q.081-.594.131-1.03t.091-.647a31.09,31.09,0,0,1-2.778,2.3,22.851,22.851,0,0,1-3.223,1.982q-1.091.555-2.323,1.123t-2.536,1.149q-1.3.581-2.637,1.136t-2.627,1.057l-.263-1.11q1.293-.5,2.627-1.044t2.627-1.123q1.293-.581,2.515-1.149t2.293-1.123A23.549,23.549,0,0,0,434-29.31a29.549,29.549,0,0,0,3-2.629q.445-2.536,1-5.218t1.212-5.047a35.932,35.932,0,0,1,1.4-4.161,6.751,6.751,0,0,1,1.576-2.51,1.01,1.01,0,0,1,.737-.33.927.927,0,0,1,.475.172,1.92,1.92,0,0,1,.636.991,5.454,5.454,0,0,1,.232,1.7,19.193,19.193,0,0,1-.172,2.6,18.457,18.457,0,0,1-.535,2.536,23.07,23.07,0,0,1-.929,2.629,30.8,30.8,0,0,1-1.374,2.827,17.232,17.232,0,0,1-1.344,2.008,26.969,26.969,0,0,1-2.132,2.457q-.061.37-.121.7t-.1.594a5.354,5.354,0,0,0-.091.594q-.05.436-.131,1.017t-.162,1.255q-.081.674-.162,1.334a6.015,6.015,0,0,1,.859-1,7.625,7.625,0,0,1,.737-.608,4.392,4.392,0,0,1,1.111-.542,3.882,3.882,0,0,1,1.212-.2,3.4,3.4,0,0,1,1.182.211,2.793,2.793,0,0,1,1.041.687,3.983,3.983,0,0,1,.879,1.559,3.7,3.7,0,0,1,.111,1.77,3.263,3.263,0,0,1-1.172,1.955,5.911,5.911,0,0,1,.414.621,5.91,5.91,0,0,0,.414.621,8.364,8.364,0,0,0,.647.793,4.794,4.794,0,0,0,.778.687,3.211,3.211,0,0,0,.869.436,1.717,1.717,0,0,0,.919.04,21.007,21.007,0,0,0,2.768-.555q1.5-.4,3.1-.925t3.263-1.136q1.657-.608,3.233-1.215Zm-20.043-18.6q-.444,1.77-.808,3.593t-.647,3.356a21.862,21.862,0,0,0,1.455-1.8,14.354,14.354,0,0,0,.95-1.48q.768-1.427,1.313-2.682a20.215,20.215,0,0,0,.889-2.444,15.776,15.776,0,0,0,.5-2.365,19.132,19.132,0,0,0,.152-2.444,4.458,4.458,0,0,0-.121-1.136A1.1,1.1,0,0,0,443-48.03h-.081a.434.434,0,0,0-.242.106,4.991,4.991,0,0,0-.576.727,8.7,8.7,0,0,0-.727,1.4q-.394.912-.839,2.3T439.585-40.077Zm-.4,18.2a4.247,4.247,0,0,0,1.051-.092,8.107,8.107,0,0,0,1.192-.33,3.707,3.707,0,0,0-.94-.727,2.328,2.328,0,0,0-1.121-.277h-.04a2.772,2.772,0,0,0-.758.106.638.638,0,0,0-.475.449.3.3,0,0,0,.02.317.931.931,0,0,0,.455.4A1.447,1.447,0,0,0,439.181-21.872Z" transform="translate(0.794 49.459)" stroke="#000" stroke-width="0.5"/>
</svg>
